<svg xmlns="http://www.w3.org/2000/svg" viewBox="0 0 152.76 152.759">
  <g data-name="Group 22043">
    <path fill="#ff0045" d="M152.76 76.379A76.38 76.38 0 1 1 76.381 0a76.379 76.379 0 0 1 76.379 76.379" data-name="Path 35131"/>
    <path d="M129.036 76.378A52.657 52.657 0 1 1 76.38 23.72a52.656 52.656 0 0 1 52.656 52.658" data-name="Path 35132"/>
    <path fill="#ff0045" d="M76.383 118.667c-.21 0-.409 0-.61-.012a42.278 42.278 0 0 1 .041-84.547c.312-.015.769-.018 1.182 0a42.277 42.277 0 0 1-.052 84.546c-.149.01-.361.01-.561.01m0-2.322c.149 0 .322 0 .479-.008a39.957 39.957 0 0 0 .052-79.908c-.209-.009-.367 0-.531-.009s-.322 0-.477.007a39.957 39.957 0 0 0-.063 79.908c.22.011.379.01.54.01" data-name="Path 35133"/>
    <path fill="#ff0045" d="m76.677 118.659-.242-.115c-.207-.1-.428-.209-.637-.333a47.318 47.318 0 0 1 .045-83.688c.164-.1.386-.208.592-.306l.242-.114h.267a42.278 42.278 0 0 1 0 84.549Zm.513-82.227c-.073.038-.147.079-.219.119a45 45 0 0 0-.045 79.633c.1.055.182.1.264.144a39.956 39.956 0 0 0 0-79.9" data-name="Path 35134"/>
    <path fill="#ff0045" d="M76.13 118.656h-.294a42.278 42.278 0 0 1-.026-84.549h.3l.814.421a47.317 47.317 0 0 1 0 83.714Zm-.568-82.224a39.956 39.956 0 0 0 0 79.9l.278-.144a44.994 44.994 0 0 0 0-79.607Z" data-name="Path 35135"/>
    <path fill="#ff0045" d="M35.261 75.221h82.242v2.322H35.261z" data-name="Rectangle 3543"/>
    <path fill="#ff0045" d="M75.221 35.263h2.322v82.242h-2.322z" data-name="Rectangle 3544"/>
    <path fill="#ff0045" d="M76.385 118.666c-.21 0-.409 0-.61-.012a41.9 41.9 0 0 1-30.182-13.284l-.835-.885.924-.791a47.179 47.179 0 0 1 61.409 0l.922.792-.834.883a41.928 41.928 0 0 1-30.232 13.286c-.149.01-.361.01-.56.01m0-2.322c.149 0 .322 0 .479-.008a39.646 39.646 0 0 0 27.764-11.673 44.867 44.867 0 0 0-56.486 0 39.6 39.6 0 0 0 27.7 11.67c.22.012.379.01.54.01" data-name="Path 35136"/>
    <path fill="#ff0045" d="M76.383 60.406a47.113 47.113 0 0 1-30.7-11.324l-.922-.792.834-.885a41.9 41.9 0 0 1 30.223-13.3c.312-.016.771-.019 1.182 0a41.872 41.872 0 0 1 30.176 13.301l.835.887-.927.79a47.079 47.079 0 0 1-30.701 11.323m-28.244-12.3a44.89 44.89 0 0 0 56.487 0 39.588 39.588 0 0 0-27.712-11.678c-.208-.01-.366 0-.53-.01s-.322 0-.477.008a39.624 39.624 0 0 0-27.768 11.68" data-name="Path 35137"/>
    <text fill="#efd521" data-name="“" font-family="Roboto-Light, Roboto" font-size="8" font-weight="300" transform="rotate(-56.462 53.676 -.4672)"><tspan x="0" y="0">“</tspan></text>
    <text fill="#efd521" font-family="Roboto-Light, Roboto" font-size="9" font-weight="300" transform="rotate(-51.269 57.1762 -7.6554)"><tspan x="0" y="0">F</tspan></text>
    <text fill="#efd521" font-family="Roboto-Light, Roboto" font-size="9" font-weight="300" transform="rotate(-43.95 60.8582 -20.6984)"><tspan x="0" y="0">O</tspan></text>
    <text fill="#efd521" data-name="O" font-family="Roboto-Light, Roboto" font-size="9" font-weight="300" transform="rotate(-35.51 66.131 -44.1509)"><tspan x="0" y="0">O</tspan></text>
    <text fill="#efd521" font-family="Roboto-Light, Roboto" font-size="9" font-weight="300" transform="rotate(-27.2 74.0468 -81.1719)"><tspan x="0" y="0">D</tspan></text>
    <text fill="#efd521" font-family="Roboto-Light, Roboto" font-size="8" font-weight="300" transform="rotate(-21.746 78.6686 -127.467)"><tspan x="0" y="0"> </tspan></text>
    <text fill="#efd521" font-family="Roboto-Light, Roboto" font-size="8" font-weight="300" transform="rotate(-18.944 84.7636 -156.8947)"><tspan x="0" y="0">I</tspan></text>
    <text fill="#efd521" font-family="Roboto-Light, Roboto" font-size="8" font-weight="300" transform="rotate(-13.868 102.8092 -230.4982)"><tspan x="0" y="0">S</tspan></text>
    <text fill="#efd521" font-family="Roboto-Light, Roboto" font-size="8" font-weight="300" transform="rotate(-8.89 137.542 -417.289)"><tspan x="0" y="0"> </tspan></text>
    <text fill="#efd521" data-name="O" font-family="Roboto-Light, Roboto" font-size="9" font-weight="300" transform="rotate(-3.221 328.6726 -1213.6478)"><tspan x="0" y="0">O</tspan></text>
    <text fill="#efd521" font-family="Roboto-Light, Roboto" font-size="9" font-weight="300" transform="rotate(5.052 -143.1874 889.6027)"><tspan x="0" y="0">U</tspan></text>
    <text fill="#efd521" font-family="Roboto-Light, Roboto" font-size="8" font-weight="300" transform="rotate(12.696 -27.7374 396.6828)"><tspan x="0" y="0">R</tspan></text>
    <text fill="#efd521" font-family="Roboto-Light, Roboto" font-size="8" font-weight="300" transform="rotate(17.706 -9.6365 311.4445)"><tspan x="0" y="0"> </tspan></text>
    <text fill="#efd521" font-family="Roboto-Light, Roboto" font-size="9" font-weight="300" transform="rotate(23.179 1.3277 245.187)"><tspan x="0" y="0">C</tspan></text>
    <text fill="#efd521" data-name="O" font-family="Roboto-Light, Roboto" font-size="9" font-weight="300" transform="rotate(31.641 12.3685 196.0968)"><tspan x="0" y="0">O</tspan></text>
    <text fill="#efd521" font-family="Roboto-Light, Roboto" font-size="9" font-weight="300" transform="rotate(40.82 19.48 164.5885)"><tspan x="0" y="0">M</tspan></text>
    <text fill="#efd521" data-name="M" font-family="Roboto-Light, Roboto" font-size="9" font-weight="300" transform="rotate(50.526 24.1148 144.3798)"><tspan x="0" y="0">M</tspan></text>
    <text fill="#efd521" data-name="O" font-family="Roboto-Light, Roboto" font-size="9" font-weight="300" transform="rotate(59.496 26.6871 131.8466)"><tspan x="0" y="0">O</tspan></text>
    <text fill="#efd521" font-family="Roboto-Light, Roboto" font-size="9" font-weight="300" transform="rotate(67.898 28.7189 122.4662)"><tspan x="0" y="0">N</tspan></text>
    <text fill="#efd521" font-family="Roboto-Light, Roboto" font-size="8" font-weight="300" transform="rotate(73.359 29.081 119.8204)"><tspan x="0" y="0"> </tspan></text>
    <text fill="#efd521" font-family="Roboto-Light, Roboto" font-size="9" font-weight="300" transform="rotate(78.976 31.0048 112.4653)"><tspan x="0" y="0">G</tspan></text>
    <text fill="#efd521" data-name="R" font-family="Roboto-Light, Roboto" font-size="8" font-weight="300" transform="rotate(86.864 32.5191 107.566)"><tspan x="0" y="0">R</tspan></text>
    <text fill="#efd521" data-name="O" font-family="Roboto-Light, Roboto" font-size="9" font-weight="300" transform="rotate(94.795 33.4578 101.8168)"><tspan x="0" y="0">O</tspan></text>
    <text fill="#efd521" data-name="U" font-family="Roboto-Light, Roboto" font-size="9" font-weight="300" transform="rotate(103.06 34.317 97.3946)"><tspan x="0" y="0">U</tspan></text>
    <text fill="#efd521" data-name="N" font-family="Roboto-Light, Roboto" font-size="9" font-weight="300" transform="rotate(111.106 35.192 93.501)"><tspan x="0" y="0">N</tspan></text>
    <text fill="#efd521" data-name="D" font-family="Roboto-Light, Roboto" font-size="9" font-weight="300" transform="rotate(119.34 36.013 89.8082)"><tspan x="0" y="0">D</tspan></text>
    <text fill="#efd521" data-name="," font-family="Roboto-Light, Roboto" font-size="9" font-weight="300" transform="rotate(124.286 34.8416 88.6421)"><tspan x="0" y="0">,</tspan></text>
    <text fill="#efd521" font-family="Roboto-Light, Roboto" font-size="8" font-weight="300" transform="rotate(126.858 35.4315 88.0082)"><tspan x="0" y="0"> </tspan></text>
    <text fill="#efd521" font-family="Roboto-Light, Roboto" font-size="9" font-weight="300" transform="rotate(131.994 37.0221 84.8262)"><tspan x="0" y="0">A</tspan></text>
    <text fill="#efd521" font-family="Roboto-Light, Roboto" font-size="8" font-weight="300" transform="rotate(137.174 36.2849 83.9337)"><tspan x="0" y="0"> </tspan></text>
    <text fill="#efd521" data-name="U" font-family="Roboto-Light, Roboto" font-size="9" font-weight="300" transform="rotate(142.45 37.9603 80.9707)"><tspan x="0" y="0">U</tspan></text>
    <text fill="#efd521" data-name="N" font-family="Roboto-Light, Roboto" font-size="9" font-weight="300" transform="rotate(150.491 38.6007 78.2077)"><tspan x="0" y="0">N</tspan></text>
    <text fill="#efd521" data-name="I" font-family="Roboto-Light, Roboto" font-size="8" font-weight="300" transform="rotate(156.06 37.6188 77.147)"><tspan x="0" y="0">I</tspan></text>
    <text fill="#efd521" font-family="Roboto-Light, Roboto" font-size="8" font-weight="300" transform="rotate(161.235 39.2638 75.1486)"><tspan x="0" y="0">V</tspan></text>
    <text fill="#efd521" font-family="Roboto-Light, Roboto" font-size="8" font-weight="300" transform="rotate(168.366 39.6064 72.8852)"><tspan x="0" y="0">E</tspan></text>
    <text fill="#efd521" data-name="R" font-family="Roboto-Light, Roboto" font-size="8" font-weight="300" transform="rotate(175.56 40.2521 70.5935)"><tspan x="0" y="0">R</tspan></text>
    <text fill="#efd521" data-name="S" font-family="Roboto-Light, Roboto" font-size="8" font-weight="300" transform="rotate(-177.342 40.6814 68.2714)"><tspan x="0" y="0">S</tspan></text>
    <text fill="#efd521" data-name="A" font-family="Roboto-Light, Roboto" font-size="9" font-weight="300" transform="scale(-1) rotate(10.02 746.3486 -470.6964)"><tspan x="0" y="0">A</tspan></text>
    <text fill="#efd521" font-family="Roboto-Light, Roboto" font-size="8" font-weight="300" transform="rotate(-163.194 41.258 63.704)"><tspan x="0" y="0">L</tspan></text>
    <text fill="#efd521" font-family="Roboto-Light, Roboto" font-size="8" font-weight="300" transform="rotate(-158.808 40.6115 62.0662)"><tspan x="0" y="0"> </tspan></text>
    <text fill="#efd521" data-name="E" font-family="Roboto-Light, Roboto" font-size="8" font-weight="300" transform="rotate(-154.087 42.0562 60.7042)"><tspan x="0" y="0">E</tspan></text>
    <text fill="#efd521" font-family="Roboto-Light, Roboto" font-size="8" font-weight="300" transform="scale(-1) rotate(32.91 197.8083 -144.765)"><tspan x="0" y="0">X</tspan></text>
    <text fill="#efd521" font-family="Roboto-Light, Roboto" font-size="8" font-weight="300" transform="rotate(-139.84 43.2042 55.8202)"><tspan x="0" y="0">P</tspan></text>
    <text fill="#efd521" data-name="E" font-family="Roboto-Light, Roboto" font-size="8" font-weight="300" transform="rotate(-132.92 43.7103 53.235)"><tspan x="0" y="0">E</tspan></text>
    <text fill="#efd521" data-name="R" font-family="Roboto-Light, Roboto" font-size="8" font-weight="300" transform="rotate(-125.69 44.5663 50.5343)"><tspan x="0" y="0">R</tspan></text>
    <text fill="#efd521" data-name="I" font-family="Roboto-Light, Roboto" font-size="8" font-weight="300" transform="rotate(-121.002 43.5076 47.7757)"><tspan x="0" y="0">I</tspan></text>
    <text fill="#efd521" data-name="E" font-family="Roboto-Light, Roboto" font-size="8" font-weight="300" transform="rotate(-116.222 45.0265 46.3337)"><tspan x="0" y="0">E</tspan></text>
    <text fill="#efd521" data-name="N" font-family="Roboto-Light, Roboto" font-size="9" font-weight="300" transform="rotate(-108.78 46.5138 42.7204)"><tspan x="0" y="0">N</tspan></text>
    <text fill="#efd521" data-name="C" font-family="Roboto-Light, Roboto" font-size="9" font-weight="300" transform="rotate(-100.455 47.5434 38.5834)"><tspan x="0" y="0">C</tspan></text>
    <text fill="#efd521" data-name="E" font-family="Roboto-Light, Roboto" font-size="8" font-weight="300" transform="rotate(-92.962 47.5406 34.4212)"><tspan x="0" y="0">E</tspan></text>
    <text fill="#efd521" data-name="." font-family="Roboto-Light, Roboto" font-size="9" font-weight="300" transform="matrix(.028 -1 1 .028 16.379 76.505)"><tspan x="0" y="0">.</tspan></text>
    <text fill="#efd521" data-name="”" font-family="Roboto-Light, Roboto" font-size="8" font-weight="300" transform="rotate(-86.188 47.7198 29.229)"><tspan x="0" y="0">”</tspan></text>
    <path fill="#efd521" d="M13.931 63.984a.317.317 0 0 0 .366-.135 10.024 10.024 0 0 1 9.061-4.729.317.317 0 0 0 .185-.587 10.026 10.026 0 0 1-4.728-9.062.317.317 0 0 0-.587-.184 10.023 10.023 0 0 1-9.061 4.727.318.318 0 0 0-.185.588 10.021 10.021 0 0 1 4.727 9.061.319.319 0 0 0 .222.321" data-name="Path 35138"/>
  </g>
</svg>
