<svg xmlns="http://www.w3.org/2000/svg" viewBox="0 0 636.593 638.664" preserveAspectRatio="none">
  <path d="m15.179 476.639 145.355 145.514v-.051a54.953 54.953 0 0 0 39.334 16.565h134.12a55.214 55.214 0 0 0 52.4-38.061l21.58 21.522a55.079 55.079 0 0 0 39.351 16.536h40.141v-.03h.006l.419-21.826a43.851 43.851 0 0 1 .469-5.444 43.315 43.315 0 0 1 23.865-32.337 42.319 42.319 0 0 1 18.523-4.287l20.454.418v-.015h.032l2.931-19.309a91.084 91.084 0 0 1 66.043-74.349l15.566-4.255.826-.225V199.891a54.563 54.563 0 0 0-15.184-37.9L476.059 16.535A55.094 55.094 0 0 0 436.7 0L55.119.053A55.189 55.189 0 0 0 .005 55.172v383.573a54.6 54.6 0 0 0 15.179 37.893" data-name="Path 35329"/>
</svg>
