<svg xmlns="http://www.w3.org/2000/svg" viewBox="0 0 1842.116 994.218" preserveAspectRatio="none">
  <path fill="#fff" d="m130.434 0-.367 19.09a38.416 38.416 0 0 1-.41 4.762A37.8 37.8 0 0 1 92.571 55.9l-17.9-.367-2.562 16.895a79.8 79.8 0 0 1-57.778 65.056L0 141.376v622.416a47.732 47.732 0 0 0 13.277 33.145L195.993 979.75a48.186 48.186 0 0 0 34.431 14.465H564.18a48.3 48.3 0 0 0 46.838-36.946c27.332 26.829 87.4 36.946 196.544 36.946 109.468 0 169.487-10.21 196.638-37.22a48.3 48.3 0 0 0 46.927 37.174h742.78a48.27 48.27 0 0 0 48.209-48.209V230.422a47.74 47.74 0 0 0-13.277-33.145L1646.12 14.467A48.175 48.175 0 0 0 1611.691 0h-86.165a48.042 48.042 0 0 0-44.775 30.261l-18.786 46.842-62.7-62.636A48.179 48.179 0 0 0 1364.836 0h-248.878a48.041 48.041 0 0 0-44.777 30.261l-18.828 46.948-62.888-62.817A47.891 47.891 0 0 0 955.12-.001Z" data-name="Path 35327"/>
</svg>
