<svg xmlns="http://www.w3.org/2000/svg" viewBox="0 0 81.379 71.417">
  <path d="M76.846 9.068a4.534 4.534 0 1 1 4.534-4.534 4.539 4.539 0 0 1-4.534 4.534m0-8.432a3.9 3.9 0 1 0 3.9 3.9 3.9 3.9 0 0 0-3.9-3.9" data-name="Path 35306"></path>
  <path d="M75.002 2.44h1.846c1.207 0 2.077.416 2.077 1.248a1.215 1.215 0 0 1-.968 1.132l1.092 1.664h-1.376l-.914-1.415h-.435v1.415h-1.323Zm1.731 1.97c.5 0 .879-.214.879-.612 0-.427-.373-.607-.887-.607h-.4V4.41Z" data-name="Path 35307"></path>
  <path d="m79.439 20.713-18.582-18.6v.006A7.026 7.026 0 0 0 55.829.001H38.684a7.059 7.059 0 0 0-6.7 4.866l-2.759-2.751A7.041 7.041 0 0 0 24.193.001h-5.131l-.053 2.791a5.667 5.667 0 0 1-.06.7 5.537 5.537 0 0 1-3.05 4.133 5.408 5.408 0 0 1-2.368.548l-2.615-.053-.375 2.468a11.644 11.644 0 0 1-8.443 9.5l-1.99.544-.106.029v25.2a6.976 6.976 0 0 0 1.941 4.845l18.581 18.595a7.044 7.044 0 0 0 5.032 2.113l48.78-.006a7.055 7.055 0 0 0 7.046-7.046V25.557a6.981 6.981 0 0 0-1.94-4.845" data-name="Path 35308"></path>
  <path fill="#fff" d="M34.48 7.049v13.323a3.041 3.041 0 1 1-6.082 0V7.048a4.2 4.2 0 0 0-4.2-4.2h-2.34a8.2 8.2 0 0 1-.087 1.064 8.339 8.339 0 0 1-8.41 7.106A14.494 14.494 0 0 1 2.85 22.841v23.023a4.2 4.2 0 0 0 4.2 4.2h17.146a4.2 4.2 0 0 0 4.2-4.2V32.537a3.041 3.041 0 1 1 6.082 0V45.86a4.2 4.2 0 0 0 4.2 4.2h17.145a4.2 4.2 0 0 0 4.2-4.2V7.049a4.2 4.2 0 0 0-4.2-4.2H38.686a4.2 4.2 0 0 0-4.2 4.2" data-name="Path 35309"></path>
</svg>